<svg xmlns="http://www.w3.org/2000/svg" width="30" height="30" viewBox="0 0 30 30">
  <g id="Group_153605" data-name="Group 153605" transform="translate(15037 11826)">
    <circle id="Ellipse_9600" data-name="Ellipse 9600" cx="15" cy="15" r="15" transform="translate(-15037 -11826)" fill="#fff"/>
    <g id="Group_153604" data-name="Group 153604" transform="translate(-15031 -11820)">
      <rect id="Canvas" width="18" height="18" fill="#ff13dc" opacity="0"/>
      <path id="Path_83091" data-name="Path 83091" d="M7.039,10.354a.5.5,0,0,0-.707,0L3.09,13.6,1.6,12.1a.343.343,0,0,0-.244-.1A.351.351,0,0,0,1,12.351V16.77a.251.251,0,0,0,.23.23H5.649A.35.35,0,0,0,6,16.647a.341.341,0,0,0-.1-.244L4.405,14.91l3.241-3.241a.5.5,0,0,0,0-.708Z" transform="translate(0 0)" fill="#707070"/>
      <path id="Path_83092" data-name="Path 83092" d="M16.77,1H12.351A.35.35,0,0,0,12,1.353a.343.343,0,0,0,.1.244L13.6,3.09,10.354,6.331a.5.5,0,0,0,0,.707l.607.608a.5.5,0,0,0,.707,0L14.91,4.405,16.4,5.9a.343.343,0,0,0,.244.1A.351.351,0,0,0,17,5.649V1.23A.25.25,0,0,0,16.77,1Z" transform="translate(0)" fill="#707070"/>
    </g>
  </g>
</svg>
