<svg id="Layer_2" data-name="Layer 2" xmlns="http://www.w3.org/2000/svg" width="42" height="40.5" viewBox="0 0 42 40.5">
  <g id="Surfaces">
    <g id="Drawing_Surface" data-name="Drawing Surface">
      <g id="Outline_no_shadow" data-name="Outline no shadow">
        <path id="Path_83224" data-name="Path 83224" d="M7,0H35a7,7,0,0,1,7,7V33.5a7,7,0,0,1-7,7H7a7,7,0,0,1-7-7V7A7,7,0,0,1,7,0Z" fill="#300"/>
      </g>
    </g>
  </g>
  <g id="Outlined_Mnemonics_Logos" data-name="Outlined Mnemonics &amp; Logos" transform="translate(8.847 8.935)">
    <g id="Ai">
      <path id="Path_83179" data-name="Path 83179" d="M23.308,27.468H16.9l-1.31,4.282a.326.326,0,0,1-.333.25H12.009q-.277,0-.194-.305l5.534-15.982q.083-.25.166-.569a3.865,3.865,0,0,0,.111-.949A.172.172,0,0,1,17.82,14h4.412c.129,0,.2.047.222.139L28.77,31.722Q28.853,32,28.6,32H25a.257.257,0,0,1-.278-.194Zm-5.447-2.953h4.7c-.111-.37-.493-1.225-.641-1.687S21.566,22,21.4,21.47l-.5-1.582q-.25-.791-.458-1.526t-.375-1.346H20.04a22.277,22.277,0,0,1-.583,2.22q-.389,1.249-.791,2.553c-.268.87-.546,1.986-.8,2.726Z" transform="translate(-11.795 -12.434)" fill="#ff9a00"/>
      <path id="Path_83180" data-name="Path 83180" d="M38.729,16.245a2.013,2.013,0,0,1-1.526-.61,2.2,2.2,0,0,1-.583-1.582,2.036,2.036,0,0,1,.625-1.54,2.144,2.144,0,0,1,1.54-.6,2.064,2.064,0,0,1,1.568.6,2.141,2.141,0,0,1,.569,1.54,2.167,2.167,0,0,1-.6,1.582,2.128,2.128,0,0,1-1.6.61Zm-1.8,14.827V18.385c0-.167.074-.25.222-.25h3.153q.222,0,.222.25V31.072q0,.278-.222.278H37.182Q36.932,31.35,36.932,31.072Z" transform="translate(-18.001 -11.913)" fill="#ff9a00"/>
    </g>
  </g>
</svg>
