<svg xmlns="http://www.w3.org/2000/svg" height="18" id="S_Translate_18_N" viewBox="0 0 18 18" width="18">
  <defs>
    <style>
	.fill-5 {
        fill: #2680eb;
      }</style>
  </defs>
  <title>S_Translate_18_N</title>
  <path class="fill-5" d="M13.778,6.308c-.015-.074-.045-.09-.105-.09h-2.01a.093.093,0,0,0-.089.092,2.044,2.044,0,0,1-.121.794l-1.342,4.112A28.805,28.805,0,0,1,7.378,9.073,7.074,7.074,0,0,0,9.114,4.5h1.132a.25.25,0,0,0,.25-.25v-1a.25.25,0,0,0-.25-.25H6.739V2.25A.25.25,0,0,0,6.489,2h-1a.249.249,0,0,0-.25.25V3h-4a.25.25,0,0,0-.25.25v1a.25.25,0,0,0,.25.25H7.624A5.322,5.322,0,0,1,6.3,8.056,7.245,7.245,0,0,1,4.519,5.7a.282.282,0,0,0-.259-.2h-1a.252.252,0,0,0-.249.295A7.388,7.388,0,0,0,5.217,9.1,12.438,12.438,0,0,1,2.5,10.731a.249.249,0,0,0-.13.324l.4.916a.257.257,0,0,0,.339.13,13.623,13.623,0,0,0,3.2-1.973A31.954,31.954,0,0,0,9.626,12.7L8.589,15.878c-.031.09,0,.135.089.135h1.44a.153.153,0,0,0,.152-.112l.778-2.513h3.3l.821,2.524a.146.146,0,0,0,.139.1h1.605c.09,0,.105-.045.09-.12Zm-2.295,5.505c.42-1.38.96-3.119,1.2-4.124H12.7c.255,1.064.93,3.119,1.215,4.124Z" />
  </svg>