<svg xmlns="http://www.w3.org/2000/svg" width="40" height="40" viewBox="0 0 40 40">
  <defs>
    <style>
      .cls-1 {
        fill: #6e6e6e;
      }

      .cls-2, .cls-3 {
        fill: #fff;
      }

      .cls-2 {
        opacity: 0;
      }
    </style>
  </defs>
  <g id="Group_159838" data-name="Group 159838" transform="translate(-83 -714)">
    <path id="Path_83300" data-name="Path 83300" class="cls-1" d="M20,0A20,20,0,1,1,0,20,20,20,0,0,1,20,0Z" transform="translate(83 714)"/>
    <g id="Group_159837" data-name="Group 159837" transform="translate(94 725)">
      <rect id="Canvas" class="cls-2" width="18" height="18"/>
      <path id="Path_83297" data-name="Path 83297" class="cls-3" d="M14.643,4.735A4.393,4.393,0,0,0,6.134,3.214a3.861,3.861,0,0,0-3.845,3.7A2.612,2.612,0,0,0,.516,9.686,2.673,2.673,0,0,0,3.205,12H5.75A.25.25,0,0,0,6,11.75v-.5A.25.25,0,0,0,5.75,11H3.2A1.668,1.668,0,0,1,1.5,9.479,1.607,1.607,0,0,1,3.022,7.788l.087,0h.18V7.071a2.86,2.86,0,0,1,3.6-2.759,3.394,3.394,0,1,1,6.634,1.35,2.678,2.678,0,1,1,.3,5.34H12.25a.25.25,0,0,0-.25.25v.5a.25.25,0,0,0,.25.25H13.7A3.759,3.759,0,0,0,17.473,8.76a3.684,3.684,0,0,0-2.831-4.024Z"/>
      <path id="Path_83298" data-name="Path 83298" class="cls-3" d="M6.75,9H8v7.5a.5.5,0,0,0,.5.5h1a.5.5,0,0,0,.5-.5V9h1.25a.25.25,0,0,0,.25-.25.245.245,0,0,0-.059-.158L9.182,6.08a.25.25,0,0,0-.353-.011l-.011.011L6.558,8.59a.245.245,0,0,0-.058.16A.25.25,0,0,0,6.75,9Z"/>
    </g>
  </g>
</svg>
