<svg xmlns="http://www.w3.org/2000/svg" width="18" height="18" viewBox="0 0 18 18">
  <g id="Group_153387" data-name="Group 153387" transform="translate(-439 -220.999)">
    <g id="Group_153212" data-name="Group 153212" transform="translate(0 1)">
      <path id="Path_82860" data-name="Path 82860" d="M11.05,2.05a9,9,0,1,0,9,9,9,9,0,0,0-9-9Z" transform="translate(436.95 217.95)" fill="#44b556"/>
      <path id="Path_82842" data-name="Path 82842" d="M10.455,3.6l-.439-.339a.3.3,0,0,0-.422.052L5.487,8.586l-2-1.993a.3.3,0,0,0-.427,0l-.4.4a.3.3,0,0,0,0,.426L5.349,10.1a.3.3,0,0,0,.451-.028L10.508,4.02a.3.3,0,0,0-.053-.423Z" transform="translate(441.429 222.805)" fill="#fff"/>
    </g>
  </g>
</svg>
