<svg xmlns="http://www.w3.org/2000/svg" width="14.003" height="14.003" viewBox="0 0 14.003 14.003">
  <g id="Group_160108" data-name="Group 160108" transform="translate(-2 -2)">
    <path id="Path_83300" data-name="Path 83300" d="M12,16V12.5a.5.5,0,0,1,.5-.5H16a.58.58,0,0,1-.127.427l-3.446,3.446A.58.58,0,0,1,12,16Z" fill="#6e6e6e"/>
    <path id="Path_83301" data-name="Path 83301" d="M15.5,2H2.5a.5.5,0,0,0-.5.5v13a.5.5,0,0,0,.5.5H11V12a1,1,0,0,1,1-1h4V2.5A.5.5,0,0,0,15.5,2ZM9,12H5V11H9Zm4-3H5V8h8Zm0-3H5V5h8Z" fill="#1473e6"/>
  </g>
</svg>

